<svg height="136" width="136" viewBox="0 0 29 29"><path fill="#FFF" d="M0 0h29v29H0z" shape-rendering="crispEdges"/><path d="M0 0h7v1H0zm8 0h1v1H8zm3 0h1v1h-1zm4 0h6v1h-6zm7 0h7v1h-7zM0 1h1v1H0zm6 0h1v1H6zm2 0h1v1H8zm2 0h3v1h-3zm4 0h2v1h-2zm3 0h2v1h-2zm5 0h1v1h-1zm6 0h1v1h-1zM0 2h1v1H0zm2 0h3v1H2zm4 0h1v1H6zm4 0h6v1h-6zm8 0h1v1h-1zm2 0h1v1h-1zm2 0h1v1h-1zm2 0h3v1h-3zm4 0h1v1h-1zM0 3h1v1H0zm2 0h3v1H2zm4 0h1v1H6zm2 0h1v1H8zm2 0h1v1h-1zm7 0h3v1h-3zm5 0h1v1h-1zm2 0h3v1h-3zm4 0h1v1h-1zM0 4h1v1H0zm2 0h3v1H2zm4 0h1v1H6zm4 0h1v1h-1zm3 0h1v1h-1zm6 0h1v1h-1zm3 0h1v1h-1zm2 0h3v1h-3zm4 0h1v1h-1zM0 5h1v1H0zm6 0h1v1H6zm3 0h2v1H9zm5 0h1v1h-1zm2 0h5v1h-5zm6 0h1v1h-1zm6 0h1v1h-1zM0 6h7v1H0zm8 0h1v1H8zm2 0h1v1h-1zm2 0h1v1h-1zm2 0h1v1h-1zm2 0h1v1h-1zm2 0h1v1h-1zm2 0h1v1h-1zm2 0h7v1h-7zM8 7h1v1H8zm2 0h1v1h-1zm3 0h2v1h-2zm3 0h5v1h-5zM0 8h1v1H0zm2 0h2v1H2zm3 0h3v1H5zm4 0h3v1H9zm4 0h2v1h-2zm3 0h4v1h-4zm6 0h1v1h-1zm3 0h1v1h-1zm2 0h2v1h-2zM0 9h1v1H0zm3 0h1v1H3zm2 0h1v1H5zm2 0h3v1H7zm4 0h2v1h-2zm5 0h1v1h-1zm2 0h7v1h-7zm10 0h1v1h-1zM1 10h2v1H1zm5 0h1v1H6zm2 0h3v1H8zm6 0h1v1h-1zm2 0h3v1h-3zm4 0h1v1h-1zm3 0h2v1h-2zm3 0h2v1h-2zM1 11h3v1H1zm4 0h1v1H5zm2 0h2v1H7zm4 0h4v1h-4zm5 0h1v1h-1zm2 0h1v1h-1zm2 0h1v1h-1zm3 0h2v1h-2zm5 0h1v1h-1zM0 12h4v1H0zm5 0h4v1H5zm5 0h1v1h-1zm5 0h1v1h-1zm2 0h1v1h-1zm2 0h1v1h-1zm6 0h2v1h-2zM0 13h1v1H0zm3 0h1v1H3zm2 0h1v1H5zm2 0h1v1H7zm2 0h1v1H9zm2 0h1v1h-1zm2 0h1v1h-1zm2 0h2v1h-2zm4 0h2v1h-2zm3 0h2v1h-2zm4 0h3v1h-3zM0 14h1v1H0zm2 0h1v1H2zm2 0h1v1H4zm2 0h2v1H6zm4 0h2v1h-2zm4 0h1v1h-1zm3 0h4v1h-4zm6 0h2v1h-2zm3 0h3v1h-3zM0 15h1v1H0zm3 0h1v1H3zm5 0h2v1H8zm3 0h3v1h-3zm5 0h1v1h-1zm2 0h1v1h-1zm2 0h1v1h-1zm3 0h2v1h-2zm4 0h1v1h-1zM1 16h1v1H1zm3 0h1v1H4zm2 0h1v1H6zm2 0h1v1H8zm3 0h1v1h-1zm4 0h1v1h-1zm5 0h2v1h-2zm4 0h2v1h-2zm3 0h1v1h-1zM1 17h2v1H1zm4 0h1v1H5zm3 0h4v1H8zm5 0h1v1h-1zm2 0h1v1h-1zm2 0h1v1h-1zm3 0h1v1h-1zm3 0h1v1h-1zm2 0h3v1h-3zM0 18h1v1H0zm6 0h1v1H6zm3 0h1v1H9zm2 0h2v1h-2zm4 0h1v1h-1zm2 0h1v1h-1zm3 0h1v1h-1zm2 0h2v1h-2zm4 0h1v1h-1zM2 19h3v1H2zm8 0h1v1h-1zm2 0h1v1h-1zm4 0h5v1h-5zm6 0h1v1h-1zm4 0h1v1h-1zM1 20h2v1H1zm3 0h1v1H4zm2 0h2v1H6zm4 0h4v1h-4zm5 0h12v1H15zm-7 1h1v1H8zm2 0h5v1h-5zm6 0h1v1h-1zm2 0h1v1h-1zm2 0h1v1h-1zm4 0h5v1h-5zM0 22h7v1H0zm8 0h2v1H8zm4 0h2v1h-2zm5 0h4v1h-4zm5 0h1v1h-1zm2 0h2v1h-2zm3 0h1v1h-1zM0 23h1v1H0zm6 0h1v1H6zm2 0h5v1H8zm7 0h1v1h-1zm5 0h1v1h-1zm4 0h2v1h-2zm3 0h1v1h-1zM0 24h1v1H0zm2 0h3v1H2zm4 0h1v1H6zm3 0h2v1H9zm3 0h1v1h-1zm2 0h1v1h-1zm3 0h1v1h-1zm3 0h5v1h-5zm6 0h2v1h-2zM0 25h1v1H0zm2 0h3v1H2zm4 0h1v1H6zm2 0h1v1H8zm2 0h2v1h-2zm3 0h4v1h-4zm8 0h1v1h-1zm3 0h2v1h-2zm4 0h1v1h-1zM0 26h1v1H0zm2 0h3v1H2zm4 0h1v1H6zm2 0h2v1H8zm5 0h1v1h-1zm4 0h2v1h-2zm3 0h1v1h-1zm3 0h1v1h-1zm3 0h1v1h-1zm2 0h1v1h-1zM0 27h1v1H0zm6 0h1v1H6zm4 0h2v1h-2zm3 0h2v1h-2zm3 0h1v1h-1zm4 0h2v1h-2zm3 0h1v1h-1zm2 0h1v1h-1zm2 0h1v1h-1zM0 28h7v1H0zm8 0h3v1H8zm4 0h2v1h-2zm4 0h1v1h-1zm2 0h4v1h-4zm7 0h1v1h-1zm2 0h1v1h-1z" shape-rendering="crispEdges"/></svg>