<svg xmlns="http://www.w3.org/2000/svg" width="24" height="24" viewBox="0 0 24 24" fill="none"><path fill-rule="evenodd" clip-rule="evenodd" d="M12 14.5a2.5 2.5 0 1 0 0-5 2.5 2.5 0 0 0 0 5Zm4.5-2.5a4.5 4.5 0 1 1-9 0 4.5 4.5 0 0 1 9 0Z" fill="currentColor"/><path fill-rule="evenodd" clip-rule="evenodd" d="m18 6 6 6-6 6a8.486 8.486 0 0 1-12 0l-6-6 6-6a8.486 8.486 0 0 1 12 0Zm-1.414 1.414a6.486 6.486 0 0 0-9.172 0L2.828 12l4.586 4.586a6.486 6.486 0 0 0 9.172 0L21.172 12l-4.586-4.586Z" fill="currentColor"/></svg>